Coordinates
version=1
nRows=24
nColumns=24
inDegrees=yes

Units are S.I. units (second, meters, Newtons, ...)
Angles are in degrees.

endheader
time	pelvis_tilt	pelvis_list	pelvis_rotation	pelvis_tx	pelvis_ty	pelvis_tz	hip_flexion_r	hip_adduction_r	hip_rotation_r	knee_angle_r	ankle_angle_r	subtalar_angle_r	mtp_angle_r	hip_flexion_l	hip_adduction_l	hip_rotation_l	knee_angle_l	ankle_angle_l	subtalar_angle_l	mtp_angle_l	lumbar_extension	lumbar_bending	lumbar_rotation
      0.44100000	     -5.54095899	      0.64072023	     -0.03392705	     -0.76074835	      1.04938093	      0.29217364	     26.78618029	      1.78352964	     -9.83554801	     -3.07040481	      5.75133195	     -1.75947576	     -0.15660530	     -3.94269977	      4.28373284	     -0.46581900	     -9.99315817	     15.62754949	      2.11862811	      0.12440097	      6.15888045	      2.08524768	     -2.10151364
      0.44516667	     -5.58914186	      0.60092578	     -0.20902767	     -0.75486324	      1.04869938	      0.29249365	     26.81033172	      1.96515431	     -9.36946700	     -3.24750860	      5.79213101	     -1.43049798	     -0.19046383	     -4.00137119	      4.24652349	     -0.68138826	    -10.49662826	     15.80060778	      1.88115983	      0.04604619	      6.23730039	      2.16043252	     -2.44004935
      0.44933333	     -5.60820930	      0.57561539	     -0.28994115	     -0.74910120	      1.04809715	      0.29270502	     26.82572082	      2.08764393	     -9.05006692	     -3.54242059	      5.95942838	     -1.23563892	     -0.23184315	     -4.03784120	      4.21139624	     -0.82008856	    -11.09352558	     15.94423874	      1.89135128	     -0.04643449	      6.31110987	      2.14712006	     -2.69872404
      0.45350000	     -5.61181348	      0.52893063	     -0.34056409	     -0.74327632	      1.04755891	      0.29287746	     26.81713468	      2.21709568	     -8.74591635	     -3.88499547	      6.02838273	     -1.10228914	     -0.26441842	     -4.07005701	      4.14577711	     -0.93666891	    -11.73261743	     16.05804274	      1.99131559	     -0.11872006	      6.34508642	      2.21099707	     -2.84591623
      0.45766667	     -5.55743687	      0.48312285	     -0.33833466	     -0.73744961	      1.04715014	      0.29291241	     26.75464036	      2.31023214	     -8.56202669	     -4.29460196	      6.01529805	     -1.05180362	     -0.27060143	     -4.14101584	      4.08286012	     -0.92895402	    -12.41631193	     16.05773936	      2.01147547	     -0.13411221	      6.41860181	      2.26223459	     -2.87096538
      0.46183333	     -5.55451392	      0.44577658	     -0.54707229	     -0.73152482	      1.04659854	      0.29354693	     26.73763771	      2.52712449	     -7.86482662	     -4.73538698	      6.18579287	     -0.99103405	     -0.34061393	     -4.13009423	      3.99571325	     -1.44820738	    -13.18491078	     16.38928370	      2.59719635	     -0.28552790	      6.46743435	      2.21195273	     -3.03586522
      0.46600000	     -5.50390087	      0.39020564	     -0.51215430	     -0.72565360	      1.04625670	      0.29353558	     26.67158042	      2.61230857	     -7.66067193	     -5.21862557	      6.13287206	     -0.96263040	     -0.34652474	     -4.13569788	      3.90880323	     -1.44027202	    -13.99500646	     16.35521935	      2.61795291	     -0.29962399	      6.48546978	      2.32775628	     -3.05387290
      0.47016667	     -5.49699021	      0.38563601	     -0.75232942	     -0.71979600	      1.04573704	      0.29422183	     26.67433865	      2.80437184	     -6.92719743	     -5.75649056	      6.08195867	     -1.08741645	     -0.39927986	     -4.06918033	      3.84762608	     -1.97688806	    -14.86748142	     16.51306438	      3.22108365	     -0.40410474	      6.42253415	      2.38132162	     -3.12586821
      0.47433333	     -5.42408805	      0.29340546	     -0.67322791	     -0.71381750	      1.04552075	      0.29419336	     26.55282645	      2.90889530	     -6.71644843	     -6.24547681	      6.02280342	     -1.06882274	     -0.40383677	     -4.03888942	      3.69696928	     -1.98200723	    -15.80518751	     16.45489730	      3.24330499	     -0.41466837	      6.46310695	      2.46498736	     -3.12578882
      0.47850000	     -5.40829739	      0.23219131	     -0.85087832	     -0.70780418	      1.04513595	      0.29509614	     26.48183874	      3.16620296	     -5.87218227	     -6.71828066	      5.82603009	     -1.54677444	     -0.46853447	     -3.90989773	      3.51112800	     -2.63235559	    -16.83278967	     16.49409478	      4.21568928	     -0.51403192	      6.43067822	      2.45005671	     -3.11780414
      0.48266667	     -5.31193281	      0.16750109	     -0.80175141	     -0.70187062	      1.04500631	      0.29505268	     26.35074247	      3.24233301	     -5.68572088	     -7.26818603	      5.75002126	     -1.53671857	     -0.47202453	     -3.84315706	      3.38602532	     -2.64759255	    -17.87928272	     16.41450421	      4.22064051	     -0.52023681	      6.45566538	      2.58032029	     -3.12404578
      0.48683333	     -5.30611853	      0.10261910	     -0.93902325	     -0.69587424	      1.04469736	      0.29591549	     26.28525933	      3.47987507	     -4.94351207	     -7.75144361	      5.41182354	     -2.09607519	     -0.52870987	     -3.63133961	      3.17399029	     -3.23606479	    -19.03046056	     16.22423265	      5.11284651	     -0.57019772	      6.38243900	      2.59615399	     -3.10066506
      0.49100000	     -5.25541341	      0.01965266	     -0.89351205	     -0.68987920	      1.04457504	      0.29602400	     26.18543259	      3.58891860	     -4.74272343	     -8.29362011	      5.30245518	     -2.14614943	     -0.53762895	     -3.43832912	      2.98937510	     -3.38111464	    -20.22338765	     16.08837650	      5.19317285	     -0.57518032	      6.27606264	      2.76382673	     -3.11637940
      0.49516667	     -5.20083484	     -0.04881050	     -0.98612974	     -0.68386919	      1.04444207	      0.29673515	     26.05845981	      3.79033972	     -4.13856487	     -8.77840161	      4.94895899	     -2.67765169	     -0.58099730	     -3.21964870	      2.76459346	     -3.83438597	    -21.46656678	     15.69840185	      6.01077424	     -0.56584981	      6.33699166	      2.76136305	     -3.09019128
      0.49933333	     -5.13741791	     -0.09882487	     -1.02278209	     -0.67799315	      1.04435883	      0.29703773	     25.96532009	      3.90175530	     -3.87901944	     -9.35609664	      4.74385403	     -2.93398368	     -0.60314264	     -2.96482141	      2.59357210	     -4.09399486	    -22.77814777	     15.41246723	      6.32636593	     -0.54524547	      6.20678882	      2.94716655	     -3.10604178
      0.50350000	     -5.06419736	     -0.21469562	     -1.01395302	     -0.67189879	      1.04438172	      0.29758614	     25.78207256	      4.09572168	     -3.44682226	     -9.79325979	      4.45064870	     -3.34493762	     -0.63600484	     -2.69432892	      2.29321528	     -4.42750327	    -24.14787997	     14.93709860	      6.89983504	     -0.48463033	      6.23989339	      2.95096049	     -3.08224380
      0.50766667	     -4.99361052	     -0.31137237	     -0.98480072	     -0.66591829	      1.04441444	      0.29780745	     25.64774542	      4.21760820	     -3.31086102	    -10.32716964	      4.33245273	     -3.37733344	     -0.64141973	     -2.37678243	      2.04495372	     -4.64836684	    -25.58891457	     14.65303284	      7.00732388	     -0.46712618	      6.10029289	      3.10645513	     -3.10277990
      0.51183333	     -4.96820178	     -0.39581641	     -1.04841849	     -0.65993422	      1.04437407	      0.29856951	     25.53349116	      4.41622838	     -2.81886089	    -10.79371888	      3.92530262	     -4.20231635	     -0.69266361	     -1.97884264	      1.74867725	     -5.05309762	    -27.06976478	     13.98834272	      7.78649916	     -0.27116557	      6.18024914	      3.19334979	     -3.09336018
      0.51600000	     -4.87104546	     -0.47526101	     -1.01780215	     -0.65409010	      1.04449347	      0.29879436	     25.37491080	      4.51019340	     -2.70228331	    -11.32622330	      3.77072623	     -4.25938449	     -0.70454418	     -1.61003942	      1.50344623	     -5.22029597	    -28.60040569	     13.32269290	      8.06912856	     -0.20663431	      6.02122252	      3.31843931	     -3.10472134
      0.52016667	     -4.78358219	     -0.57956428	     -0.98989059	     -0.64816791	      1.04462204	      0.29912334	     25.20345923	      4.63870053	     -2.56637038	    -11.82256141	      3.60834695	     -4.42099441	     -0.71859854	     -1.20378445	      1.20887912	     -5.41875504	    -30.17277785	     12.54396621	      8.40836891	     -0.12123805	      5.93893707	      3.43986994	     -3.11613122
      0.52433333	     -4.70495225	     -0.70600949	     -0.95248390	     -0.64221918	      1.04477266	      0.29948572	     25.02460212	      4.78775509	     -2.44222054	    -12.29049066	      3.44188991	     -4.64620847	     -0.73481651	     -0.75704485	      0.87704670	     -5.60159937	    -31.78738895	     11.72262937	      8.72760343	     -0.01078106	      5.88205795	      3.57019911	     -3.12832249
      0.52850000	     -4.63362980	     -0.82604008	     -0.91480562	     -0.63634900	      1.04490496	      0.29981254	     24.85660586	      4.92164170	     -2.34657892	    -12.75950194	      3.30224223	     -4.82622323	     -0.74848377	     -0.26350017	      0.55204617	     -5.75013802	    -33.45092965	     10.91954738	      8.98501239	      0.09496015	      5.79702215	      3.72783011	     -3.14430263
      0.53266667	     -4.55281646	     -0.97110199	     -0.86229396	     -0.63046450	      1.04508625	      0.30012789	     24.66168072	      5.07115900	     -2.30339680	    -13.19760635	      3.17107542	     -5.00464764	     -0.76295181	      0.24832178	      0.19455123	     -5.86610360	    -35.14189959	     10.02568116	      9.22189192	      0.21499489	      5.73683604	      3.88329796	     -3.15627000
      0.53683333	     -4.47663437	     -1.11801844	     -0.81111069	     -0.62462720	      1.04525737	      0.30040342	     24.46795045	      5.21555112	     -2.28010586	    -13.62464384	      3.07046535	     -5.13214412	     -0.77514495	      0.79458941	     -0.16135499	     -5.94490924	    -36.86567705	      9.15568457	      9.39853556	      0.32540234	      5.64925653	      4.06842707	     -3.17271567
